<?xml version="1.0" encoding="UTF-8" standalone="no"?>
<!-- Created with Inkscape (http://www.inkscape.org/) -->

<svg
   xmlns:dc="http://purl.org/dc/elements/1.1/"
   xmlns:cc="http://creativecommons.org/ns#"
   xmlns:rdf="http://www.w3.org/1999/02/22-rdf-syntax-ns#"
   xmlns:svg="http://www.w3.org/2000/svg"
   xmlns="http://www.w3.org/2000/svg"
   xmlns:sodipodi="http://sodipodi.sourceforge.net/DTD/sodipodi-0.dtd"
   xmlns:inkscape="http://www.inkscape.org/namespaces/inkscape"
   width="118.05579mm"
   height="117.97829mm"
   viewBox="0 0 118.05579 117.97829"
   version="1.1"
   id="svg8"
   inkscape:version="0.92.1 r15371"
   sodipodi:docname="Smiling Gudetama Face.svg">
  <defs
     id="defs2" />
  <sodipodi:namedview
     id="base"
     pagecolor="#ffffff"
     bordercolor="#666666"
     borderopacity="1.0"
     inkscape:pageopacity="0.0"
     inkscape:pageshadow="0"
     inkscape:zoom="0.35"
     inkscape:cx="394.54629"
     inkscape:cy="-108.06628"
     inkscape:document-units="mm"
     inkscape:current-layer="layer1"
     showgrid="false"
     inkscape:window-width="1855"
     inkscape:window-height="1056"
     inkscape:window-x="65"
     inkscape:window-y="24"
     inkscape:window-maximized="1" />
  <metadata
     id="metadata5">
    <rdf:RDF>
      <cc:Work
         rdf:about="">
        <dc:format>image/svg+xml</dc:format>
        <dc:type
           rdf:resource="http://purl.org/dc/dcmitype/StillImage" />
        <dc:title></dc:title>
      </cc:Work>
    </rdf:RDF>
  </metadata>
  <g
     inkscape:label="Layer 1"
     inkscape:groupmode="layer"
     id="layer1"
     transform="translate(-1.4429611,-2.2625049)">
    <path
       style="fill:#000000;stroke-width:0.35277778"
       d="m 52.313191,119.69646 c -9.2732,-1.26528 -18.52984,-4.98079 -26.51869,-10.64429 -3.81893,-2.70734 -10.8111,-9.740117 -13.54332,-13.621987 -4.7540597,-6.75445 -8.5561297,-15.89149 -10.0205597,-24.0812 -1.04437,-5.840538 -1.0509,-14.536778 -0.0153,-20.322968 1.51814,-8.48199 5.65102,-18.25493 10.4546997,-24.72203 9.06132,-12.19909 21.20963,-19.9242601 36.55971,-23.2485001 3.15843,-0.68399 4.70414,-0.79298 11.24642,-0.79298 6.54229,0 8.08799,0.10899 11.24641,0.79298 12.777483,2.76712 23.038853,8.3950801 31.529599,17.2927601 7.92512,8.30497 13.44764,19.24922 15.4801,30.67777 1.02778,5.77918 1.02124,14.48997 -0.0153,20.322968 -1.45203,8.17142 -5.2572,17.32021 -10.01587,24.0812 -2.73222,3.88187 -9.724386,10.914647 -13.543306,13.621987 -12.56453,8.90733 -27.812093,12.69542 -42.844683,10.64429 z m 18.15526,-3.84143 c 4.758723,-0.87674 10.497153,-2.87471 15.390443,-5.35857 C 107.85902,99.329133 119.92584,74.258053 114.94233,50.070165 110.41969,28.119105 93.643184,11.409965 71.258721,6.5619849 c -5.16407,-1.11842 -16.40099,-1.11842 -21.56506,0 -5.02764,1.08888 -8.54412,2.29324 -13.18142,4.5145001 -14.90864,7.14124 -25.65683,20.12825 -29.7569597,35.95527 -3.45496,13.33655 -2.10637,26.405758 4.0042797,38.805568 2.63761,5.35227 5.93243,9.96478 10.20552,14.286967 4.41915,4.46994 8.71782,7.62575 14.1284,10.37217 6.33926,3.21784 11.34158,4.74876 19.56188,5.98678 2.27538,0.34269 12.81619,-0.0761 15.81309,-0.62821 z M 55.305021,74.577143 c -3.50752,-0.6663 -5.84119,-1.47085 -9.0399,-3.11659 -3.33851,-1.71767 -4.83893,-3.36291 -4.83893,-5.30598 0,-2.773028 1.42002,-3.776988 5.34228,-3.776988 3.19075,0 21.32927,2.30391 23.90223,3.036 2.605463,0.741328 3.916593,2.093428 3.916593,4.038958 0,2.02364 -1.62879,3.56335 -4.865693,4.59961 -3.02672,0.96897 -10.62314,1.24561 -14.41658,0.52499 z m 13.1618,-3.18617 c 0.99936,-0.30428 2.18484,-0.85107 2.63439,-1.2151 0.67959,-0.5503 0.74202,-0.75265 0.37037,-1.20047 -0.62054,-0.74771 -2.67127,-1.16528 -10.819,-2.20298 -3.88056,-0.49423 -8.16681,-1.045348 -9.525,-1.224718 -3.93161,-0.5192 -6.51198,-0.44314 -6.75848,0.19922 -0.7164,1.866888 6.32134,5.151808 13.46126,6.283158 2.02116,0.32026 8.82903,-0.0888 10.63646,-0.63911 z m 18.820473,-2.12322 c -5.51499,-1.58096 -10.58333,-5.754338 -10.58333,-8.714538 0,-3.87382 7.25551,-3.5488 13.50201,0.60484 4.59998,3.05879 5.91802,7.109398 2.68057,8.237978 -1.4313,0.49896 -3.58318,0.44965 -5.59925,-0.12828 z M 27.230091,58.700615 c -4.21373,-1.5039 -4.56409,-3.9598 -0.91483,-6.4127 4.16248,-2.79786 13.26583,-3.05559 16.03511,-0.45398 1.12919,1.06082 1.13025,2.87685 0.002,4.00478 -1.16289,1.1629 -3.9234,2.49535 -6.14733,2.96722 -2.51058,0.53269 -7.34664,0.47594 -8.97527,-0.10532 z"
       id="path56"
       inkscape:connector-curvature="0"
       sodipodi:nodetypes="cssscscsccccscccccssccsscccccssscssccccscssccscccccscscc" />
  </g>
</svg>
